HIERARCHY
ROOT Hips
{
  OFFSET -415.369 92.1786 1420.92
  CHANNELS 6 Xposition Yposition Zposition Zrotation Xrotation Yrotation
  JOINT Spine
  {
    OFFSET 0 8 0
    CHANNELS 6 Xposition Yposition Zposition Zrotation Xrotation Yrotation
    JOINT Spine1
    {
      OFFSET 0 8 0
      CHANNELS 6 Xposition Yposition Zposition Zrotation Xrotation Yrotation
      JOINT Spine2
      {
        OFFSET 0 8 0
        CHANNELS 6 Xposition Yposition Zposition Zrotation Xrotation Yrotation
        JOINT Spine3
        {
          OFFSET 0 8 0
          CHANNELS 6 Xposition Yposition Zposition Zrotation Xrotation Yrotation
          JOINT Neck
          {
            OFFSET 0 17 0
            CHANNELS 6 Xposition Yposition Zposition Zrotation Xrotation Yrotation
            JOINT Head
            {
              OFFSET 0 10.8 0
              CHANNELS 6 Xposition Yposition Zposition Zrotation Xrotation Yrotation
              End Site
              {
                OFFSET 0 20.25 0
              }
            }
          }
          JOINT LeftShoulder
          {
            OFFSET 5 17 0
            CHANNELS 6 Xposition Yposition Zposition Zrotation Xrotation Yrotation
            JOINT LeftShoulder2
            {
              OFFSET 6.45 0 0
              CHANNELS 6 Xposition Yposition Zposition Zrotation Xrotation Yrotation
              JOINT LeftArm
              {
                OFFSET 6.45 0 0
                CHANNELS 6 Xposition Yposition Zposition Zrotation Xrotation Yrotation
                JOINT LeftForeArm
                {
                  OFFSET 0 -32.4 -2
                  CHANNELS 6 Xposition Yposition Zposition Zrotation Xrotation Yrotation
                  JOINT LeftHand
                  {
                    OFFSET 0 -25.65 2
                    CHANNELS 6 Xposition Yposition Zposition Zrotation Xrotation Yrotation
                    JOINT LeftHandThumb1
                    {
                      OFFSET -0.5 -1.5 2.65
                      CHANNELS 6 Xposition Yposition Zposition Zrotation Xrotation Yrotation
                      JOINT LeftHandThumb2
                      {
                        OFFSET 0 -3.8 3.7
                        CHANNELS 6 Xposition Yposition Zposition Zrotation Xrotation Yrotation
                        JOINT LeftHandThumb3
                        {
                          OFFSET 0 -3 2.7
                          CHANNELS 6 Xposition Yposition Zposition Zrotation Xrotation Yrotation
                          End Site
                          {
                            OFFSET 0 -2.3 1.8
                          }
                        }
                      }
                    }
                    JOINT LeftHandIndex
                    {
                      OFFSET 0 -1.9 1.6
                      CHANNELS 6 Xposition Yposition Zposition Zrotation Xrotation Yrotation
                      JOINT LeftHandIndex1
                      {
                        OFFSET 0 -8.3 1.9
                        CHANNELS 6 Xposition Yposition Zposition Zrotation Xrotation Yrotation
                        JOINT LeftHandIndex2
                        {
                          OFFSET 0 -4.5 0
                          CHANNELS 6 Xposition Yposition Zposition Zrotation Xrotation Yrotation
                          JOINT LeftHandIndex3
                          {
                            OFFSET 0 -3.4 0
                            CHANNELS 6 Xposition Yposition Zposition Zrotation Xrotation Yrotation
                            End Site
                            {
                              OFFSET 0 -2.6 0
                            }
                          }
                        }
                      }
                    }
                    JOINT LeftHandMiddle
                    {
                      OFFSET -0.25 -2.2 0.4
                      CHANNELS 6 Xposition Yposition Zposition Zrotation Xrotation Yrotation
                      JOINT LeftHandMiddle1
                      {
                        OFFSET 0 -8.3 1
                        CHANNELS 6 Xposition Yposition Zposition Zrotation Xrotation Yrotation
                        JOINT LeftHandMiddle2
                        {
                          OFFSET 0 -4.65 0
                          CHANNELS 6 Xposition Yposition Zposition Zrotation Xrotation Yrotation
                          JOINT LeftHandMiddle3
                          {
                            OFFSET 0 -3.3 0
                            CHANNELS 6 Xposition Yposition Zposition Zrotation Xrotation Yrotation
                            End Site
                            {
                              OFFSET 0 -2.7 0
                            }
                          }
                        }
                      }
                    }
                    JOINT LeftHandRing
                    {
                      OFFSET -0.5 -2.15 -0.8
                      CHANNELS 6 Xposition Yposition Zposition Zrotation Xrotation Yrotation
                      JOINT LeftHandRing1
                      {
                        OFFSET 0 -7.75 -0.2
                        CHANNELS 6 Xposition Yposition Zposition Zrotation Xrotation Yrotation
                        JOINT LeftHandRing2
                        {
                          OFFSET 0 -3.8 0
                          CHANNELS 6 Xposition Yposition Zposition Zrotation Xrotation Yrotation
                          JOINT LeftHandRing3
                          {
                            OFFSET 0 -3.4 0
                            CHANNELS 6 Xposition Yposition Zposition Zrotation Xrotation Yrotation
                            End Site
                            {
                              OFFSET 0 -2.6 0
                            }
                          }
                        }
                      }
                    }
                    JOINT LeftHandPinky
                    {
                      OFFSET -0.75 -1.75 -1.85
                      CHANNELS 6 Xposition Yposition Zposition Zrotation Xrotation Yrotation
                      JOINT LeftHandPinky1
                      {
                        OFFSET 0 -7.15 -1
                        CHANNELS 6 Xposition Yposition Zposition Zrotation Xrotation Yrotation
                        JOINT LeftHandPinky2
                        {
                          OFFSET 0 -3 0
                          CHANNELS 6 Xposition Yposition Zposition Zrotation Xrotation Yrotation
                          JOINT LeftHandPinky3
                          {
                            OFFSET 0 -2.35 0
                            CHANNELS 6 Xposition Yposition Zposition Zrotation Xrotation Yrotation
                            End Site
                            {
                              OFFSET 0 -2.1 0
                            }
                          }
                        }
                      }
                    }
                  }
                }
              }
            }
          }
          JOINT RightShoulder
          {
            OFFSET -5 17 0
            CHANNELS 6 Xposition Yposition Zposition Zrotation Xrotation Yrotation
            JOINT RightShoulder2
            {
              OFFSET -6.45 0 0
              CHANNELS 6 Xposition Yposition Zposition Zrotation Xrotation Yrotation
              JOINT RightArm
              {
                OFFSET -6.45 0 0
                CHANNELS 6 Xposition Yposition Zposition Zrotation Xrotation Yrotation
                JOINT RightForeArm
                {
                  OFFSET 0 -32.4 -2
                  CHANNELS 6 Xposition Yposition Zposition Zrotation Xrotation Yrotation
                  JOINT RightHand
                  {
                    OFFSET 0 -25.65 2
                    CHANNELS 6 Xposition Yposition Zposition Zrotation Xrotation Yrotation
                    JOINT RightHandThumb1
                    {
                      OFFSET 0.5 -1.5 2.65
                      CHANNELS 6 Xposition Yposition Zposition Zrotation Xrotation Yrotation
                      JOINT RightHandThumb2
                      {
                        OFFSET 0 -3.8 3.7
                        CHANNELS 6 Xposition Yposition Zposition Zrotation Xrotation Yrotation
                        JOINT RightHandThumb3
                        {
                          OFFSET 0 -3 2.7
                          CHANNELS 6 Xposition Yposition Zposition Zrotation Xrotation Yrotation
                          End Site
                          {
                            OFFSET 0 -2.3 1.8
                          }
                        }
                      }
                    }
                    JOINT RightHandIndex
                    {
                      OFFSET 0 -1.9 1.6
                      CHANNELS 6 Xposition Yposition Zposition Zrotation Xrotation Yrotation
                      JOINT RightHandIndex1
                      {
                        OFFSET 0 -8.3 1.9
                        CHANNELS 6 Xposition Yposition Zposition Zrotation Xrotation Yrotation
                        JOINT RightHandIndex2
                        {
                          OFFSET 0 -4.5 0
                          CHANNELS 6 Xposition Yposition Zposition Zrotation Xrotation Yrotation
                          JOINT RightHandIndex3
                          {
                            OFFSET 0 -3.4 0
                            CHANNELS 6 Xposition Yposition Zposition Zrotation Xrotation Yrotation
                            End Site
                            {
                              OFFSET 0 -2.6 0
                            }
                          }
                        }
                      }
                    }
                    JOINT RightHandMiddle
                    {
                      OFFSET 0.25 -2.2 0.4
                      CHANNELS 6 Xposition Yposition Zposition Zrotation Xrotation Yrotation
                      JOINT RightHandMiddle1
                      {
                        OFFSET 0 -8.3 1
                        CHANNELS 6 Xposition Yposition Zposition Zrotation Xrotation Yrotation
                        JOINT RightHandMiddle2
                        {
                          OFFSET 0 -4.65 0
                          CHANNELS 6 Xposition Yposition Zposition Zrotation Xrotation Yrotation
                          JOINT RightHandMiddle3
                          {
                            OFFSET 0 -3.3 0
                            CHANNELS 6 Xposition Yposition Zposition Zrotation Xrotation Yrotation
                            End Site
                            {
                              OFFSET 0 -2.7 0
                            }
                          }
                        }
                      }
                    }
                    JOINT RightHandRing
                    {
                      OFFSET 0.5 -2.15 -0.8
                      CHANNELS 6 Xposition Yposition Zposition Zrotation Xrotation Yrotation
                      JOINT RightHandRing1
                      {
                        OFFSET 0 -7.75 -0.2
                        CHANNELS 6 Xposition Yposition Zposition Zrotation Xrotation Yrotation
                        JOINT RightHandRing2
                        {
                          OFFSET 0 -3.8 0
                          CHANNELS 6 Xposition Yposition Zposition Zrotation Xrotation Yrotation
                          JOINT RightHandRing3
                          {
                            OFFSET 0 -3.4 0
                            CHANNELS 6 Xposition Yposition Zposition Zrotation Xrotation Yrotation
                            End Site
                            {
                              OFFSET 0 -2.6 0
                            }
                          }
                        }
                      }
                    }
                    JOINT RightHandPinky
                    {
                      OFFSET 0.75 -1.75 -1.85
                      CHANNELS 6 Xposition Yposition Zposition Zrotation Xrotation Yrotation
                      JOINT RightHandPinky1
                      {
                        OFFSET 0 -7.15 -1
                        CHANNELS 6 Xposition Yposition Zposition Zrotation Xrotation Yrotation
                        JOINT RightHandPinky2
                        {
                          OFFSET 0 -3 0
                          CHANNELS 6 Xposition Yposition Zposition Zrotation Xrotation Yrotation
                          JOINT RightHandPinky3
                          {
                            OFFSET 0 -2.35 0
                            CHANNELS 6 Xposition Yposition Zposition Zrotation Xrotation Yrotation
                            End Site
                            {
                              OFFSET 0 -2.1 0
                            }
                          }
                        }
                      }
                    }
                  }
                }
              }
            }
          }
        }
      }
    }
  }
  JOINT LeftUpLeg
  {
    OFFSET 8 0 0
    CHANNELS 6 Xposition Yposition Zposition Zrotation Xrotation Yrotation
    JOINT LeftLeg
    {
      OFFSET 0 -45 -1
      CHANNELS 6 Xposition Yposition Zposition Zrotation Xrotation Yrotation
      JOINT LeftFoot
      {
        OFFSET 0 -41 -2
        CHANNELS 6 Xposition Yposition Zposition Zrotation Xrotation Yrotation
        JOINT LeftToeBase
        {
          OFFSET 0 -7.5 12.5
          CHANNELS 6 Xposition Yposition Zposition Zrotation Xrotation Yrotation
          JOINT LeftFootToe
          {
            OFFSET 0 0 4
            CHANNELS 6 Xposition Yposition Zposition Zrotation Xrotation Yrotation
            End Site
            {
              OFFSET 0 0 0
            }
          }
        }
      }
    }
  }
  JOINT RightUpLeg
  {
    OFFSET -8 0 0
    CHANNELS 6 Xposition Yposition Zposition Zrotation Xrotation Yrotation
    JOINT RightLeg
    {
      OFFSET 0 -45 -1
      CHANNELS 6 Xposition Yposition Zposition Zrotation Xrotation Yrotation
      JOINT RightFoot
      {
        OFFSET 0 -41 -2
        CHANNELS 6 Xposition Yposition Zposition Zrotation Xrotation Yrotation
        JOINT RightToeBase
        {
          OFFSET 0 -7.5 12.5
          CHANNELS 6 Xposition Yposition Zposition Zrotation Xrotation Yrotation
          JOINT RightFootToe
          {
            OFFSET 0 0 4
            CHANNELS 6 Xposition Yposition Zposition Zrotation Xrotation Yrotation
            End Site
            {
              OFFSET 0 0 0
            }
          }
        }
      }
    }
  }
}
MOTION
Frames:	3
Frame Time:	0.0111111
-435.538 90.3436 1405.07 0.0380086 -0.244813 105.531 0 8 2.27374e-13 -0.341802 11.3711 4.82318 0 8 -1.13687e-13 -0.390004 4.12645 2.67289 -2.27374e-13 8 0 -0.170777 2.0615 1.33272 0 8 -1.13687e-13 -0.17061 2.05962 1.33151 0 17 0 -1.89571 2.5344 -1.29717 -2.27374e-13 10.8 0 -4.3438 5.97885 -2.90395 5 17 2.27374e-13 -4.5398 -3.71742 -10.105 6.45 2.84217e-14 -1.13687e-13 1.07684 1.08283 2.04944 6.45 0 1.13687e-13 20.8406 14.5196 37.4566 0 -32.4 -2 -90.0762 -58.4861 -137.725 -2.27374e-13 -25.65 2 -33.1197 12.7513 -22.7857 -0.5 -1.5 2.65 68.6154 -78.5269 -146.692 -5.68434e-14 -3.8 3.7 -0.0611039 10.5226 0.0113848 1.7053e-13 -3 2.7 -0.031342 31.4144 0.0345996 1.13687e-13 -1.9 1.6 -3.97569e-15 1.11319e-14 -0 0 -8.3 1.9 -30.928 15.9132 5.11066 2.27374e-13 -4.5 -2.27374e-13 -77.8998 -0.00509977 0.0235718 0 -3.4 1.13687e-13 -62.6063 -0.0177158 0.0171108 -0.25 -2.2 0.4 -3.97569e-15 1.11319e-14 -0 0 -8.3 1 -44.5167 17.0164 9.4139 0 -4.65 0 -76.305 -0.00259178 0.00751018 1.13687e-13 -3.3 -1.13687e-13 -90.0002 9.54166e-15 1.90833e-14 -0.5 -2.15 -0.8 -3.97569e-15 1.11319e-14 -0 0 -7.75 -0.2 -85.2418 -4.0728 12.5614 -2.27374e-13 -3.8 -1.13687e-13 -25.7015 0.024203 -0.018519 5.68434e-14 -3.4 2.27374e-13 -90.0002 -0.000411987 0.0018158 -0.75 -1.75 -1.85 -3.97569e-15 1.11319e-14 -0 -2.27374e-13 -7.15 -1 -89.6588 1.37212 17.2147 1.13687e-13 -3 1.13687e-13 -48.9771 0.0430281 -0.0133677 -1.42109e-14 -2.35 0 -90.0002 3.18055e-15 -6.36111e-15 -5 17 2.27374e-13 1.97469 -3.17835 -5.47325 -6.45 -1.42109e-14 0 -1.52323 0.122214 -1.26454 -6.45 0 0 -27.7398 3.83445 -32.3601 2.27374e-13 -32.4 -2 6.71654 -68.7399 1.64896 0 -25.65 2 1.61264 -12.4111 -6.43899 0.5 -1.5 2.65 10.4958 2.48322 21.2392 2.27374e-13 -3.8 3.7 1.3902 0.297072 -0.531231 2.27374e-13 -3 2.7 0.272631 39.9357 -0.192929 0 -1.9 1.6 4.77083e-15 1.59028e-15 3.18055e-15 -2.27374e-13 -8.3 1.9 9.83927 -3.97129 0.363492 0 -4.5 -5.68434e-14 5.06181 -0.0584462 -0.00504326 4.54747e-13 -3.4 0 4.70925 -0.0523549 -7.85122e-05 0.25 -2.2 0.4 4.77083e-15 1.59028e-15 3.18055e-15 -2.27374e-13 -8.3 1 5.40319 -5.28403 0.0648053 -4.54747e-13 -4.65 0 5.12008 0.106188 0.0464273 0 -3.3 5.68434e-14 4.69751 0.0951707 0.0326037 0.5 -2.15 -0.8 4.77083e-15 1.59028e-15 3.18055e-15 4.54747e-13 -7.75 -0.2 10.1675 -3.48538 -0.18038 0 -3.8 5.68434e-14 49.0498 0.199454 -0.132178 0 -3.4 -5.68434e-14 34.0272 0.0620113 -0.150968 0.75 -1.75 -1.85 4.77083e-15 1.59028e-15 3.18055e-15 0 -7.15 -1 49.8169 -3.85656 -1.35547 2.27374e-13 -3 0 64.2368 0.0909419 -0.173978 -1.13687e-13 -2.35 0 46.1918 -0.0507024 -0.163215 8 -2.84217e-14 0 8.42776 -17.8871 -8.97327 0 -45 -1 0.00286863 39.4266 -0.528654 2.27374e-13 -41 -2 -8.41736 -6.42934 3.84858 -4.54747e-13 -7.5 12.5 1.22407e-15 -5.9206 1.59881e-15 2.27374e-13 -7.10543e-15 4 6.87715 6.35323 -9.92953 -8 -1.42109e-14 1.13687e-13 -9.55572 -19.6775 -5.50493 0 -45 -1 -0.00117668 12.1057 -0.104896 -2.27374e-13 -41 -2 5.73571 3.74788 11.6037 2.27374e-13 -7.5 12.5 -1.98785e-16 3.97569e-16 3.18055e-15 0 7.10543e-15 4 1.36934 -3.23337 12.7553 
-435.088 90.3624 1405.82 0.103096 -0.473707 106.88 0 8 2.27374e-13 -0.138737 11.4588 4.77586 2.27374e-13 8 0 -0.435071 4.11614 2.64717 0 8 0 -0.193708 2.06151 1.31943 -6.82121e-13 8 -1.13687e-13 -0.19352 2.05963 1.31825 -2.27374e-13 17 0 -1.78179 2.70635 -1.44691 -2.27374e-13 10.8 0 -4.06127 6.38351 -3.2553 5 17 2.27374e-13 -4.53037 -3.67782 -10.083 6.45 0 1.13687e-13 1.08772 1.05537 2.02243 6.45 0 0 20.8406 14.5196 37.4566 -1.13687e-13 -32.4 -2 -90.5997 -58.7059 -138.681 -3.41061e-13 -25.65 2 -32.7468 11.8385 -22.7923 -0.5 -1.5 2.65 68.1609 -78.2717 -146.928 0 -3.8 3.7 -0.0610665 10.3375 0.011378 2.27374e-13 -3 2.7 -0.0259522 30.9576 0.020572 0 -1.9 1.6 -1.03368e-14 7.95139e-15 -9.54166e-15 0 -8.3 1.9 -31.5903 16.2886 5.356 0 -4.5 1.13687e-13 -76.8316 -0.00509977 0.0235718 0 -3.4 -1.13687e-13 -61.0163 -0.0177158 0.0233995 -0.25 -2.2 0.4 -1.03368e-14 7.95139e-15 -9.54166e-15 0 -8.3 1 -44.8636 17.1751 9.561 0 -4.65 -1.13687e-13 -76.0403 -0.00259178 0.00751018 1.13687e-13 -3.3 0 -90.0002 -1.27222e-14 1.59028e-14 -0.5 -2.15 -0.8 -1.03368e-14 7.95139e-15 -9.54166e-15 0 -7.75 -0.2 -85.2692 -4.10948 12.5621 -1.13687e-13 -3.8 0 -26.8318 0.024203 -0.0118185 5.68434e-14 -3.4 1.13687e-13 -90.0002 -0.000411987 0.0018158 -0.75 -1.75 -1.85 -1.03368e-14 7.95139e-15 -9.54166e-15 -2.27374e-13 -7.15 -1 -89.6824 1.32332 17.2249 -1.13687e-13 -3 2.27374e-13 -50.314 0.0329719 -0.0133677 -1.42109e-14 -2.35 -1.13687e-13 -90.0002 1.31198e-14 1.59028e-14 -5 17 1.13687e-13 2.15582 -3.06479 -5.28236 -6.45 0 0 -1.49132 0.122215 -1.23308 -6.45 5.68434e-14 1.13687e-13 -29.0489 3.18806 -31.5599 0 -32.4 -2 5.6395 -68.6325 0.691946 2.27374e-13 -25.65 2 1.54008 -12.9002 -5.90211 0.5 -1.5 2.65 10.9136 4.16788 21.6675 2.27374e-13 -3.8 3.7 1.45618 -0.817649 -0.520905 2.27374e-13 -3 2.7 0.275481 39.2095 -0.186446 0 -1.9 1.6 1.59028e-15 1.59028e-15 -0 2.27374e-13 -8.3 1.9 9.92019 -3.24848 0.303536 0 -4.5 0 4.60667 -0.0605453 -0.00504326 2.27374e-13 -3.4 1.13687e-13 4.30833 -0.0543415 -7.85122e-05 0.25 -2.2 0.4 1.59028e-15 1.59028e-15 -0 0 -8.3 1 5.94089 -4.79328 0.0968704 -2.27374e-13 -4.65 1.13687e-13 6.29763 0.131417 0.0357562 0 -3.3 1.13687e-13 5.6805 0.11407 0.0194144 0.5 -2.15 -0.8 1.59028e-15 1.59028e-15 -0 2.27374e-13 -7.75 -0.2 11.2715 -2.60269 -0.235422 0 -3.8 1.13687e-13 51.471 0.184998 -0.149243 0 -3.4 -1.13687e-13 35.7267 0.0448892 -0.162939 0.75 -1.75 -1.85 1.59028e-15 1.59028e-15 -0 0 -7.15 -1 50.3403 -4.22903 -1.21948 1.13687e-13 -3 -5.68434e-14 65.8907 0.0139465 -0.0348703 -1.13687e-13 -2.35 -1.13687e-13 47.5478 -0.0148469 -0.0317048 8 0 0 9.02865 -18.8079 -8.29164 -2.27374e-13 -45 -1 0.118313 40.5929 -0.787243 0 -41 -2 -8.58508 -6.06616 4.29248 -4.54747e-13 -7.5 12.5 1.63614e-15 -2.75274 -3.18423e-15 4.54747e-13 -1.42109e-14 4 7.33861 3.17406 -9.46789 -8 -1.42109e-14 1.13687e-13 -9.01021 -19.2681 -5.88066 0 -45 -1 0.00748222 12.302 -0.143887 -2.27374e-13 -41 -2 6.16794 4.58882 11.0133 0 -7.5 12.5 -3.97569e-16 3.47873e-16 9.54166e-15 0 7.10543e-15 4 0.751579 -3.94788 12.7463 
-434.629 90.4267 1406.55 0.176943 -0.703512 108.29 0 8 2.27374e-13 0.0860872 11.5392 4.70285 0 8 0 -0.479914 4.11221 2.61816 0 8 -1.13687e-13 -0.216464 2.06214 1.30453 0 8 1.13687e-13 -0.216252 2.06026 1.30336 2.27374e-13 17 0 -1.65931 2.8798 -1.60541 -2.27374e-13 10.8 0 -3.75641 6.79091 -3.62937 5 17 2.27374e-13 -4.53569 -3.64097 -10.0878 6.45 2.84217e-14 1.13687e-13 1.09086 1.02394 2.03531 6.45 -5.68434e-14 0 20.8406 14.5196 37.4566 5.68434e-14 -32.4 -2 -91.197 -58.8843 -139.824 -1.13687e-13 -25.65 2 -31.9792 10.7209 -22.9436 -0.5 -1.5 2.65 66.5846 -77.7841 -148.189 0 -3.8 3.7 -0.0610256 10.1349 0.0113707 2.27374e-13 -3 2.7 -0.0156253 30.8845 0.0164325 0 -1.9 1.6 -7.95139e-15 7.95139e-15 -3.18055e-15 0 -8.3 1.9 -31.8399 16.6735 5.53092 0 -4.5 0 -75.7363 -0.00509977 0.0235718 1.13687e-13 -3.4 1.13687e-13 -59.5274 -0.0190738 0.0325661 -0.25 -2.2 0.4 -7.95139e-15 7.95139e-15 -3.18055e-15 0 -8.3 1 -44.9834 17.4537 9.71894 0 -4.65 0 -75.862 -0.00259178 0.00751018 1.13687e-13 -3.3 1.13687e-13 -90.0002 -1.27222e-14 1.59028e-14 -0.5 -2.15 -0.8 -7.95139e-15 7.95139e-15 -3.18055e-15 0 -7.75 -0.2 -85.2857 -4.12819 12.5725 -1.13687e-13 -3.8 0 -27.812 0.024203 -0.0075058 0 -3.4 0 -90.0002 -0.000411987 0.0018158 -0.75 -1.75 -1.85 -7.95139e-15 7.95139e-15 -3.18055e-15 -2.27374e-13 -7.15 -1 -89.7074 1.26952 17.2333 1.13687e-13 -3 1.13687e-13 -51.3252 0.0231625 -0.00923716 1.42109e-14 -2.35 -3.41061e-13 -90.0002 -7.95139e-16 3.18055e-15 -5 17 0 2.35278 -2.95829 -5.09203 -6.45 -2.84217e-14 0 -1.45644 0.124544 -1.20782 -6.45 2.84217e-14 1.13687e-13 -30.371 2.57911 -30.7686 0 -32.4 -2 4.68786 -68.6275 -0.00743126 0 -25.65 2 1.37504 -13.282 -5.44075 0.5 -1.5 2.65 11.2681 5.76435 22.0318 0 -3.8 3.7 1.50184 -1.97005 -0.504246 0 -3 2.7 0.266547 38.5617 -0.177497 0 -1.9 1.6 3.18055e-15 4.37326e-15 6.36111e-15 2.27374e-13 -8.3 1.9 9.89712 -2.52706 0.24442 2.27374e-13 -4.5 0 4.38567 -0.0407127 -0.00366662 4.54747e-13 -3.4 0 4.1173 -0.0363527 -7.85122e-05 0.25 -2.2 0.4 3.18055e-15 4.37326e-15 6.36111e-15 -2.27374e-13 -8.3 1 6.9259 -4.01507 0.0830646 -2.27374e-13 -4.65 0 7.71308 0.142549 0.0193992 0 -3.3 -1.13687e-13 6.84311 0.118994 0.00225965 0.5 -2.15 -0.8 3.18055e-15 4.37326e-15 6.36111e-15 0 -7.75 -0.2 13.4203 -1.82652 -0.368951 2.27374e-13 -3.8 0 53.8519 0.16353 -0.156189 1.13687e-13 -3.4 0 37.47 0.0268292 -0.166465 0.75 -1.75 -1.85 3.18055e-15 4.37326e-15 6.36111e-15 2.27374e-13 -7.15 -1 51.2995 -4.60918 -1.11259 0 -3 0 66.0341 -0.019522 0.0406495 0 -2.35 -5.68434e-14 47.6769 0.016079 0.041578 8 1.42109e-14 0 9.60021 -19.6847 -7.59158 2.27374e-13 -45 -1 0.248192 41.6127 -1.05678 2.27374e-13 -41 -2 -8.75815 -5.76325 4.96084 -2.27374e-13 -7.5 12.5 5.96354e-16 9.93923e-16 -0 2.27374e-13 0 4 7.81663 0.411781 -9.05886 -8 -1.42109e-14 2.27374e-13 -8.45544 -18.7875 -6.22714 2.27374e-13 -45 -1 0.0133534 12.3599 -0.170652 0 -41 -2 6.38679 5.23838 10.2554 2.27374e-13 -7.5 12.5 -9.93923e-17 1.2424e-16 -6.36111e-15 2.27374e-13 7.10543e-15 4 0.425754 -4.52846 12.8003 
